<svg width="18" height="18" viewBox="0 0 18 18" fill="none" xmlns="http://www.w3.org/2000/svg">
<path d="M8.78948 5.20703C8.02259 5.20703 7.27292 5.44415 6.63527 5.88839C5.99762 6.33264 5.50064 6.96407 5.20716 7.70282C4.91369 8.44158 4.8369 9.25448 4.98651 10.0387C5.13613 10.823 5.50542 11.5434 6.04769 12.1088C6.58997 12.6742 7.28087 13.0593 8.03302 13.2153C8.78518 13.3713 9.5648 13.2912 10.2733 12.9852C10.9818 12.6792 11.5874 12.161 12.0135 11.4962C12.4395 10.8313 12.6669 10.0496 12.6669 9.25C12.6658 8.17811 12.2569 7.15047 11.53 6.39253C10.8031 5.63458 9.81749 5.20824 8.78948 5.20703ZM8.78948 12.2383C8.22264 12.2383 7.66854 12.063 7.19724 11.7347C6.72593 11.4063 6.3586 10.9396 6.14168 10.3936C5.92476 9.84753 5.86801 9.24668 5.97859 8.66702C6.08917 8.08735 6.36213 7.55488 6.76294 7.13697C7.16375 6.71905 7.67442 6.43444 8.23036 6.31914C8.7863 6.20383 9.36254 6.26301 9.88623 6.48919C10.4099 6.71536 10.8575 7.09838 11.1724 7.5898C11.4873 8.08122 11.6554 8.65897 11.6554 9.25C11.6546 10.0423 11.3523 10.8018 10.8151 11.362C10.2778 11.9222 9.54931 12.2374 8.78948 12.2383ZM12.4984 0.636719H5.0806C3.8738 0.638161 2.71684 1.13866 1.86351 2.02841C1.01018 2.91816 0.530169 4.12451 0.528786 5.38281V13.1172C0.530169 14.3755 1.01018 15.5818 1.86351 16.4716C2.71684 17.3613 3.8738 17.8618 5.0806 17.8633H12.4984C13.7051 17.8618 14.8621 17.3613 15.7154 16.4716C16.5688 15.5818 17.0488 14.3755 17.0502 13.1172V5.38281C17.0488 4.12451 16.5688 2.91816 15.7154 2.02841C14.8621 1.13866 13.7051 0.638161 12.4984 0.636719ZM16.0387 13.1172C16.0376 14.0959 15.6643 15.0342 15.0006 15.7262C14.3369 16.4182 13.437 16.8075 12.4984 16.8086H5.0806C4.14197 16.8075 3.24209 16.4182 2.57839 15.7262C1.91468 15.0342 1.54135 14.0959 1.5403 13.1172V5.38281C1.54135 4.40413 1.91468 3.46584 2.57839 2.7738C3.24209 2.08177 4.14197 1.6925 5.0806 1.69141H12.4984C13.437 1.6925 14.3369 2.08177 15.0006 2.7738C15.6643 3.46584 16.0376 4.40413 16.0387 5.38281V13.1172ZM14.0156 4.67969C14.0156 4.85352 13.9662 5.02345 13.8736 5.16798C13.7809 5.31252 13.6493 5.42517 13.4953 5.49169C13.3412 5.55821 13.1718 5.57562 13.0083 5.54171C12.8447 5.50779 12.6945 5.42409 12.5767 5.30117C12.4588 5.17825 12.3785 5.02164 12.346 4.85115C12.3134 4.68066 12.3301 4.50394 12.3939 4.34334C12.4577 4.18275 12.5658 4.04548 12.7044 3.9489C12.843 3.85233 13.006 3.80078 13.1727 3.80078C13.3962 3.80106 13.6104 3.89375 13.7684 4.05852C13.9265 4.22328 14.0154 4.44667 14.0156 4.67969Z" fill="#AFAFAF"/>
</svg>
