<svg width="16" height="16" viewBox="0 0 16 16" fill="none" xmlns="http://www.w3.org/2000/svg">
<path d="M13.7874 2.92914H2.13673C1.88888 2.92914 1.68863 3.12938 1.68863 3.37724V12.3393C1.68863 12.5872 1.88888 12.7874 2.13673 12.7874H13.7874C14.0353 12.7874 14.2355 12.5872 14.2355 12.3393V3.37724C14.2355 3.12938 14.0353 2.92914 13.7874 2.92914ZM13.2273 4.4807V11.7792H2.69686V4.4807L2.31037 4.17963L2.8607 3.47246L3.46004 3.93877H12.4655L13.0648 3.47246L13.6152 4.17963L13.2273 4.4807ZM12.4655 3.93737L7.96207 7.43818L3.45864 3.93737L2.8593 3.47106L2.30897 4.17823L2.69546 4.4793L7.47896 8.19855C7.61653 8.30543 7.78577 8.36344 7.95997 8.36344C8.13418 8.36344 8.30342 8.30543 8.44098 8.19855L13.2273 4.4807L13.6138 4.17963L13.0634 3.47246L12.4655 3.93737Z" fill="white"/>
</svg>
