<svg width="16" height="15" viewBox="0 0 16 15" fill="none" xmlns="http://www.w3.org/2000/svg">
<g clip-path="url(#clip0)">
<path d="M11.7339 14.4176C11.5999 14.4173 11.4664 14.4026 11.3356 14.3738C8.84476 13.8586 6.55007 12.6505 4.71559 10.8886C2.92025 9.1228 1.67509 6.87459 1.13076 4.41596C1.06658 4.10954 1.08233 3.79176 1.1765 3.49319C1.27068 3.19463 1.44011 2.92532 1.66848 2.71118L3.26174 1.17767C3.34312 1.10071 3.43981 1.04178 3.54551 1.00472C3.6512 0.967653 3.76352 0.953296 3.87514 0.962581C3.99088 0.974655 4.10256 1.01194 4.20235 1.07181C4.30213 1.13167 4.38758 1.21268 4.4527 1.30911L6.44427 4.25265C6.51895 4.36687 6.55501 4.50204 6.54712 4.63827C6.53923 4.77451 6.48782 4.90462 6.40045 5.00945L5.40069 6.20439C5.79886 7.08564 6.36275 7.88212 7.06166 8.55046C7.75603 9.24305 8.57677 9.79607 9.47942 10.1796L10.7182 9.19573C10.8222 9.1135 10.9488 9.06489 11.0812 9.05635C11.2135 9.04782 11.3453 9.07976 11.459 9.14793L14.4663 11.0917C14.5695 11.1533 14.6574 11.2375 14.7235 11.3379C14.7895 11.4383 14.832 11.5524 14.8477 11.6716C14.8634 11.7907 14.852 11.9119 14.8142 12.026C14.7764 12.1401 14.7133 12.2442 14.6296 12.3305L13.0762 13.868C12.8997 14.0435 12.6903 14.1825 12.4599 14.2768C12.2296 14.3712 11.9828 14.419 11.7339 14.4176ZM3.81141 1.75124L2.21816 3.28475C2.08968 3.40446 1.99458 3.55556 1.9422 3.72317C1.88982 3.89078 1.88197 4.06914 1.91942 4.2407C2.42557 6.54779 3.58904 8.65892 5.26924 10.319C6.99561 11.9766 9.15504 13.1129 11.4989 13.5971C11.6763 13.6342 11.8601 13.6267 12.0339 13.5752C12.2077 13.5238 12.366 13.43 12.4947 13.3023L14.0481 11.7649L11.1444 9.8888L9.814 10.9483C9.76307 10.9886 9.70306 11.0159 9.63919 11.0277C9.57532 11.0395 9.50953 11.0355 9.44756 11.016C8.34291 10.609 7.34185 9.96296 6.51596 9.12403C5.66172 8.3263 4.99864 7.34596 4.57618 6.25617C4.5583 6.1902 4.55771 6.12073 4.57445 6.05446C4.59119 5.98819 4.62471 5.92734 4.67177 5.87777L5.74722 4.59122L3.81141 1.75124Z" fill="#F9F9F9"/>
</g>
<defs>
<clipPath id="clip0">
<rect width="14.3393" height="14.3393" fill="white" transform="translate(0.688629 0.301392)"/>
</clipPath>
</defs>
</svg>
