<svg width="19" height="18" viewBox="0 0 19 18" fill="none" xmlns="http://www.w3.org/2000/svg">
<path d="M17.8042 0.422552C17.6416 0.276131 17.4437 0.178891 17.2319 0.141368C17.0201 0.103844 16.8025 0.127469 16.6027 0.209681L1.04589 6.58219C0.808606 6.67938 0.607889 6.85407 0.473771 7.08012C0.339653 7.30617 0.279346 7.57143 0.301875 7.8362C0.324403 8.10098 0.428555 8.35102 0.598746 8.54892C0.768937 8.74683 0.996014 8.88194 1.246 8.93406L5.33302 9.78624V15.0766C5.33277 15.3201 5.40185 15.5582 5.53148 15.7607C5.66112 15.9632 5.84548 16.1211 6.06122 16.2143C6.27697 16.3074 6.51438 16.3317 6.74338 16.2841C6.97238 16.2365 7.18267 16.119 7.34761 15.9467L9.64619 13.5499L13.0841 16.7045C13.2979 16.9024 13.5738 17.0119 13.8597 17.0123C13.984 17.0121 14.1076 16.9917 14.2258 16.9517C14.4209 16.8872 14.5963 16.7705 14.7346 16.6132C14.8729 16.456 14.9692 16.2637 15.014 16.0555L18.1845 1.62973C18.2327 1.41148 18.2229 1.18362 18.1558 0.970819C18.0888 0.758017 17.9672 0.568474 17.8042 0.422552ZM1.30947 7.74296C1.30401 7.70484 1.31168 7.66594 1.33112 7.63316C1.35057 7.60038 1.38053 7.57585 1.41568 7.56393L14.4329 2.23169L5.72152 8.79176L1.44434 7.89976C1.4077 7.89449 1.37404 7.87584 1.34934 7.84713C1.32465 7.81842 1.31052 7.78151 1.30947 7.74296ZM6.6323 15.201C6.60873 15.2256 6.57869 15.2423 6.54599 15.2491C6.5133 15.2559 6.4794 15.2524 6.4486 15.2391C6.4178 15.2258 6.39148 15.2033 6.37295 15.1744C6.35443 15.1455 6.34453 15.1115 6.34453 15.0767V10.5205L8.88536 12.8519L6.6323 15.201ZM14.028 15.8199C14.0215 15.8496 14.0077 15.8771 13.9879 15.8995C13.9682 15.922 13.9432 15.9387 13.9154 15.9481C13.8876 15.9574 13.858 15.9591 13.8294 15.9529C13.8008 15.9467 13.7742 15.9329 13.7523 15.9127L6.64857 9.39469L17.1838 1.46116L14.028 15.8199Z" fill="#AFAFAF"/>
</svg>
