<svg width="18" height="19" viewBox="0 0 18 19" fill="none" xmlns="http://www.w3.org/2000/svg">
<path d="M8.71929 0.285156C7.22008 0.285577 5.74702 0.694629 4.44619 1.47175C3.14537 2.24886 2.06197 3.36704 1.30344 4.7154C0.544918 6.06376 0.137616 7.59544 0.121931 9.15856C0.106246 10.7217 0.482723 12.2619 1.21403 13.6265L0.474356 16.3256C0.416506 16.5366 0.413831 16.7599 0.46661 16.9724C0.519389 17.1848 0.6257 17.3787 0.774524 17.5339C0.923348 17.6891 1.10927 17.7999 1.31302 17.855C1.51676 17.91 1.73092 17.9072 1.9333 17.8469L4.52201 17.0757C5.66878 17.7443 6.94726 18.1301 8.25927 18.2033C9.57129 18.2765 10.8819 18.0352 12.0906 17.4979C13.2992 16.9607 14.3737 16.1418 15.2316 15.1041C16.0894 14.0664 16.7078 12.8376 17.0391 11.5119C17.3705 10.1862 17.4062 8.79898 17.1433 7.45671C16.8804 6.11445 16.3259 4.85285 15.5226 3.7688C14.7192 2.68475 13.6883 1.80708 12.5089 1.20319C11.3296 0.599303 10.0332 0.285252 8.71929 0.285156ZM8.71929 17.1602C7.35683 17.1611 6.01935 16.779 4.84772 16.0539C4.78846 16.0172 4.72264 15.9935 4.65428 15.9842C4.58592 15.975 4.51648 15.9804 4.45019 16.0001L1.65538 16.8327C1.62649 16.8413 1.59591 16.8417 1.56681 16.8338C1.53771 16.826 1.51116 16.8102 1.48991 16.788C1.46865 16.7659 1.45346 16.7382 1.44592 16.7079C1.43838 16.6775 1.43875 16.6456 1.44701 16.6155L2.24543 13.7013C2.26436 13.6322 2.26955 13.5598 2.26068 13.4886C2.25181 13.4173 2.22907 13.3487 2.19384 13.287C1.33936 11.7859 0.984988 10.0324 1.18594 8.29943C1.38689 6.5665 2.13187 4.95151 3.30484 3.70606C4.4778 2.46061 6.01289 1.65462 7.67096 1.41365C9.32903 1.17269 11.017 1.51027 12.4719 2.37382C13.9268 3.23736 15.0669 4.57838 15.7147 6.18797C16.3624 7.79756 16.4814 9.58534 16.0532 11.2728C15.6249 12.9603 14.6734 14.4527 13.3469 15.5176C12.0204 16.5824 10.3934 17.1599 8.71929 17.1602ZM13.0607 10.7272L11.3361 9.69947C11.154 9.59124 10.9476 9.53544 10.7381 9.53779C10.5285 9.54013 10.3233 9.60055 10.1435 9.71283L9.06076 10.3902C8.45276 10.048 7.954 9.52792 7.62584 8.89396L8.27549 7.765C8.3832 7.57754 8.44114 7.36357 8.44336 7.14505C8.44558 6.92653 8.39201 6.71133 8.28813 6.52152L7.30266 4.72328C7.20743 4.55 7.07005 4.40598 6.90438 4.30574C6.73872 4.2055 6.55063 4.15259 6.35909 4.15234C5.60084 4.15259 4.87357 4.46604 4.33645 5.02408C3.79933 5.58212 3.4961 6.3393 3.49313 7.1299C3.49177 8.12341 3.67827 9.10745 4.04196 10.0257C4.40565 10.944 4.9394 11.7785 5.61268 12.4816C6.28595 13.1846 7.08555 13.7423 7.96572 14.1228C8.8459 14.5034 9.78939 14.6992 10.7422 14.6992H10.7526C11.5108 14.6961 12.237 14.38 12.7722 13.8199C13.3074 13.2599 13.608 12.5015 13.6083 11.7109C13.608 11.5112 13.5573 11.3151 13.4612 11.1424C13.365 10.9697 13.2269 10.8265 13.0607 10.7272ZM10.7512 13.6445H10.7423C9.92243 13.6445 9.1106 13.476 8.35324 13.1486C7.59588 12.8212 6.90785 12.3413 6.32852 11.7364C5.74918 11.1314 5.2899 10.4134 4.97694 9.62323C4.66399 8.83308 4.5035 7.98636 4.50465 7.13148C4.50683 6.62021 4.70319 6.13065 5.05074 5.76998C5.3983 5.4093 5.86874 5.20689 6.35909 5.20703C6.37235 5.20705 6.38538 5.21071 6.39685 5.21766C6.40832 5.2246 6.41783 5.23458 6.42442 5.24658L7.40988 7.04482C7.42472 7.07192 7.43237 7.10264 7.43206 7.13384C7.43175 7.16504 7.42349 7.19559 7.40811 7.22236L6.6166 8.59785C6.57466 8.67078 6.55026 8.75321 6.54548 8.8381C6.54069 8.92299 6.55567 9.00783 6.58912 9.08538C7.04607 10.1458 7.8602 10.9947 8.87725 11.4711C8.95163 11.506 9.033 11.5216 9.11442 11.5166C9.19584 11.5116 9.27489 11.4861 9.34482 11.4423L10.6638 10.6172C10.6895 10.6012 10.7189 10.5926 10.7488 10.5922C10.7787 10.5919 10.8082 10.5998 10.8343 10.6152L12.5589 11.6429C12.5704 11.6498 12.5799 11.6597 12.5866 11.6716C12.5932 11.6836 12.5967 11.6971 12.5968 11.7109C12.5969 12.2222 12.4028 12.7127 12.0569 13.0751C11.711 13.4375 11.2415 13.6422 10.7512 13.6445Z" fill="#AFAFAF"/>
</svg>
