<svg width="14" height="15" viewBox="0 0 14 15" fill="none" xmlns="http://www.w3.org/2000/svg">
<g clip-path="url(#clip0)">
<path d="M10.1686 7.75865C10.167 7.24346 10.1118 6.72984 10.0038 6.22608H11.3831C11.3121 6.01595 11.2263 5.8111 11.1264 5.61305H9.84291C9.60163 4.80695 9.22739 4.04681 8.73563 3.36401C8.42145 3.23191 8.09386 3.13427 7.75862 3.07282C8.43231 3.79667 8.94083 4.65814 9.24904 5.59773H7.18391V3.00769H6.6092V5.60156H4.54406C4.8529 4.66027 5.36277 3.79742 6.03831 3.07282C5.70451 3.13325 5.37822 3.22959 5.06513 3.36018C4.57144 4.04011 4.19462 4.79763 3.95019 5.60156H2.659C2.55731 5.80322 2.47024 6.01193 2.39847 6.22608H3.78927C3.68134 6.72984 3.62612 7.24346 3.62452 7.75865C3.62558 8.32217 3.68984 8.88379 3.81609 9.43298H2.45977C2.53903 9.64774 2.63379 9.85646 2.7433 10.0575H3.98084C4.21541 10.7915 4.56315 11.4844 5.01149 12.1111C5.33256 12.2488 5.66796 12.3504 6.01149 12.4138C5.38618 11.7317 4.90527 10.9302 4.5977 10.0575H6.61303V12.4866H7.18774V10.0575H9.1954C8.88679 10.9306 8.40455 11.7321 7.77778 12.4138C8.12293 12.3482 8.45964 12.2441 8.78161 12.1035C9.22925 11.4791 9.57697 10.7888 9.81226 10.0575H11.0383C11.1473 9.86018 11.2421 9.65531 11.3218 9.44447H9.96169C10.094 8.89212 10.1634 8.32659 10.1686 7.75865ZM6.6092 9.43298H4.40996C4.14022 8.37851 4.12839 7.27459 4.37548 6.21459H6.6092V9.43298ZM9.38314 9.43298H7.18391V6.22608H9.41762C9.52769 6.72943 9.58166 7.24342 9.57854 7.75865C9.58166 8.32262 9.51604 8.88488 9.38314 9.43298Z" fill="#AFAFAF"/>
<path d="M6.89657 1.6283C5.68412 1.6283 4.49889 1.98783 3.49077 2.66143C2.48266 3.33503 1.69692 4.29245 1.23294 5.41261C0.768953 6.53277 0.647553 7.76536 0.884091 8.95452C1.12063 10.1437 1.70448 11.236 2.56181 12.0933C3.41915 12.9507 4.51146 13.5345 5.70061 13.771C6.88977 14.0076 8.12236 13.8862 9.24252 13.4222C10.3627 12.9582 11.3201 12.1725 11.9937 11.1644C12.6673 10.1562 13.0268 8.97102 13.0268 7.75856C13.0268 6.13272 12.381 4.57346 11.2313 3.42381C10.0817 2.27416 8.52242 1.6283 6.89657 1.6283ZM6.89657 13.1225C5.83567 13.1225 4.7986 12.808 3.9165 12.2186C3.03439 11.6292 2.34688 10.7914 1.94089 9.81127C1.5349 8.83113 1.42868 7.75261 1.63565 6.7121C1.84262 5.67159 2.35349 4.71582 3.10366 3.96565C3.85382 3.21549 4.8096 2.70462 5.85011 2.49765C6.89062 2.29068 7.96914 2.3969 8.94928 2.80289C9.92942 3.20888 10.7672 3.89639 11.3566 4.77849C11.946 5.6606 12.2606 6.69767 12.2606 7.75856C12.2606 9.18118 11.6954 10.5455 10.6895 11.5515C9.68354 12.5574 8.31919 13.1225 6.89657 13.1225Z" fill="#AFAFAF"/>
</g>
<defs>
<clipPath id="clip0">
<rect width="13.7931" height="13.7931" fill="white" transform="translate(0 0.862061)"/>
</clipPath>
</defs>
</svg>
